<?xml version="1.0" encoding="UTF-8" standalone="no"?>
<svg
   xmlns:dc="http://purl.org/dc/elements/1.1/"
   xmlns:cc="http://creativecommons.org/ns#"
   xmlns:rdf="http://www.w3.org/1999/02/22-rdf-syntax-ns#"
   xmlns:svg="http://www.w3.org/2000/svg"
   xmlns="http://www.w3.org/2000/svg"
   xmlns:sodipodi="http://sodipodi.sourceforge.net/DTD/sodipodi-0.dtd"
   xmlns:inkscape="http://www.inkscape.org/namespaces/inkscape"
   height="227"
   viewBox="0 0 226.8 226.8"
   width="227"
   class="undefined"
   version="1.1"
   id="svg10"
   sodipodi:docname="logo2.svg"
   inkscape:version="0.92.0 r">
  <metadata
     id="metadata16">
    <rdf:RDF>
      <cc:Work
         rdf:about="">
        <dc:format>image/svg+xml</dc:format>
        <dc:type
           rdf:resource="http://purl.org/dc/dcmitype/StillImage" />
        <dc:title />
      </cc:Work>
    </rdf:RDF>
  </metadata>
  <defs
     id="defs14" />
  <sodipodi:namedview
     pagecolor="#ffffff"
     bordercolor="#666666"
     borderopacity="1"
     objecttolerance="10"
     gridtolerance="10"
     guidetolerance="10"
     inkscape:pageopacity="0"
     inkscape:pageshadow="2"
     inkscape:window-width="1440"
     inkscape:window-height="900"
     id="namedview12"
     showgrid="false"
     inkscape:zoom="2.0792952"
     inkscape:cx="52.665061"
     inkscape:cy="99.574047"
     inkscape:window-x="0"
     inkscape:window-y="0"
     inkscape:window-maximized="0"
     inkscape:current-layer="svg10"
     showguides="false" />
  <style
     id="style2">.a{fill:#24ce88;}</style>
  <rect
     style="opacity:1;fill:#ffffff;fill-opacity:1;stroke-width:0.99911892"
     id="rect4485"
     width="137.90593"
     height="159.52882"
     x="43.726269"
     y="29.311016" />
  <path
     d="m132 128.6c-2.1-2-7.1-5.5-13.6-8-6.5-2.5-15.1-4.8-15.1-4.8l-9.1 28.6c0 0 8.8 3 14.8 4.5 6.1 1.5 12.6 1.9 16.2 1.2 3.6-0.7 8.1-2.2 10.2-8.7 2.1-6.5-1.4-10.7-3.5-12.7z"
     class="a"
     id="path4" />
  <path
     d="m118.7 106c4.9 1.4 10.5 1.9 14.8 1 4.4-0.9 7.5-3.4 9-8.3 1.4-4.9-0.5-10-5.4-13.5-4.9-3.4-8.6-4.7-12.7-6.1-4.2-1.4-8.5-2.4-8.5-2.4l-8.2 25.7c0 0 6.2 2.2 11.1 3.5z"
     class="a"
     id="path6" />
  <path
     d="M147.9 5.4C88.2-13.7 24.4 19.3 5.4 78.9-13.7 138.6 19.3 202.4 78.9 221.5 138.6 240.5 202.4 207.6 221.5 147.9 240.5 88.2 207.6 24.4 147.9 5.4ZM144.2 168.8c-9.8 3-18.7 1.3-22.7 0.6-2-0.4-5.3-1.1-8.8-2l-6.9 21.7-13.3-4.3 6.8-21.3C96.8 162.6 93.2 161.5 89.1 160.2l-6.8 21.3-13.3-4.3 6.8-21.3c-13.2-4.2-26.2-8.4-26.2-8.4l7.9-15.1c0 0 5.3 1.7 8 2.5 2.7 0.9 3.9 1 5.3 0.3 1.5-0.7 2.2-2.2 2.6-3.6 0.4-1.3 16.5-51.7 17.6-55.2 1.1-3.5 1.1-4.5 0.1-6.8-1-2.3-4.7-3.7-6.8-4.4-2.1-0.7-7.7-2.5-7.7-2.5L81 49c0 0 12.6 4 26.2 8.4l6.8-21.4 13.3 4.3-6.8 21.4c3.7 1.2 7.2 2.3 10.2 3.2l6.8-21.4 13.3 4.3-6.9 21.6c9.7 3.8 16.5 8 21.5 14.9 6.4 8.8 2.5 19.4 1.5 21.9-1 2.5-3.7 7.1-7 9.5-3.3 2.5-9.8 3.9-9.8 3.9 0 0 6 3.4 9.5 8.3 3.5 4.9 4.9 12 1.9 20.8-3 8.8-7.6 17-17.4 20z"
     class="a"
     id="path8" />
</svg>
